<?xml version="1.0" standalone="no"?>
<!DOCTYPE svg PUBLIC "-//W3C//DTD SVG 20010904//EN"
 "http://www.w3.org/TR/2001/REC-SVG-20010904/DTD/svg10.dtd">
<svg version="1.0" xmlns="http://www.w3.org/2000/svg"
 width="88.000000pt" height="88.000000pt" viewBox="0 0 88.000000 88.000000"
 preserveAspectRatio="xMidYMid meet">
<metadata>
Created by potrace 1.14, written by Peter Selinger 2001-2017
</metadata>
<g transform="translate(0.000000,88.000000) scale(0.100000,-0.100000)"
fill="#000000" stroke="none">
<path d="M0 439 l0 -440 140 2 c77 1 140 6 140 10 0 5 -9 9 -21 9 -24 0 -119
98 -180 186 -35 50 -37 55 -13 33 16 -14 54 -44 84 -66 30 -23 85 -71 123
-107 l67 -66 270 0 270 0 0 440 0 440 -440 0 -440 0 0 -441z m198 41 c-1 -17
-6 -30 -10 -30 -4 0 -7 -3 -7 -7 3 -20 -2 -34 -11 -28 -7 4 -7 13 0 26 6 11 7
19 1 19 -11 0 -24 47 -16 60 4 6 13 6 26 0 13 -8 19 -20 17 -40z m98 -10 c8 0
14 5 14 11 0 5 5 7 10 4 18 -11 10 -25 -14 -25 -13 0 -27 -6 -29 -12 -3 -7 -5
1 -5 17 0 17 2 24 5 18 2 -7 11 -13 19 -13z m131 11 c16 14 17 5 1 -20 -11
-18 -13 -18 -25 -3 -16 21 -17 40 -1 24 8 -8 15 -9 25 -1z m176 -18 c4 -20 0
-23 -24 -23 -19 0 -29 5 -29 15 0 21 -30 19 -31 -2 -1 -17 -2 -17 -6 0 -2 9
-11 17 -19 17 -10 0 -12 -5 -8 -12 5 -8 0 -7 -11 2 -10 8 -16 10 -12 4 4 -7
-1 -14 -12 -17 -17 -4 -18 -2 -10 17 9 19 18 21 84 21 69 0 74 -1 78 -22z
m-219 1 c4 -9 5 -18 4 -19 -7 -6 -48 15 -48 25 0 17 37 11 44 -6z m-244 -25
c0 -24 -23 -21 -28 4 -2 10 3 17 12 17 10 0 16 -9 16 -21z m20 -50 c0 -6 -4
-7 -10 -4 -5 3 -10 11 -10 16 0 6 5 7 10 4 6 -3 10 -11 10 -16z m695 -341 l20
-19 -20 7 c-11 4 -48 36 -82 72 -106 111 -79 91 82 -60z m-455 42 c0 -5 -5
-10 -11 -10 -5 0 -7 5 -4 10 3 6 8 10 11 10 2 0 4 -4 4 -10z m54 1 c8 -12 -21
-34 -33 -27 -6 4 -8 13 -4 21 6 17 29 20 37 6z"/>
</g>
</svg>
